# xmcd
#
# Track frame offsets:
#	182
#	18520
#	37797
#	55955
#	75190
#	96827
#	111550
#	130070
#	148325
#	166025
#	184195
#	198072
#
# Disc length: 2897 seconds
#
# Revision: 1
# Processed by: cddbd v1.5.2PL0 Copyright (c) Steve Scherf et al.
# Submitted via: EasyCDDAExtractor 10.0.2.1
#
DISCID=960b4f0c
DTITLE=CHISTIAN and RALF
DYEAR=1995
DGENRE=Country
TTITLE0=O QUE TIVER QUE VIR,VIRÁ (BY DJ GILMAR SINISTRO)
TTITLE1=VOCÊ NÃO ME ENSINOU A TE ESQUECER (BY DJ GILMAR SINISTRO)
TTITLE2=O AMOR NÃO É PAIXÃO (BY DJ GILMAR SINISTRO)
TTITLE3=MANDE A SOLIDÃO PRA OUTRO LUGAR (BY DJ GILMAR SINISTRO)
TTITLE4=OLHOS DE LUAR (BY DJ GILMAR SINISTRO)
TTITLE5=MEU CORAÇÃO ESTÁ DE OLHO NAS RUAS (BY DJ GILMAR SINISTRO)
TTITLE6=SOU EU (BY DJ GILMAR SINISTRO)
TTITLE7=SONHO DE CRIANÇA (BY DJ GILMAR SINISTRO)
TTITLE8=MEU CORPO TE ADORA (BY DJ GILMAR SINISTRO)
TTITLE9=CORAÇÃO CAÇADOR (BY DJ GILMAR SINISTRO)
TTITLE10=DIZ PRA ELA (BY DJ GILMAR SINISTRO)
TTITLE11=QUEM É VOCÊ (BY DJ GILMAR SINISTRO)
EXTD=YEAR: 1995
EXTT0=
EXTT1=
EXTT2=
EXTT3=
EXTT4=
EXTT5=
EXTT6=
EXTT7=
EXTT8=
EXTT9=
EXTT10=
EXTT11=
PLAYORDER=
